<?xml version="1.0" standalone="no"?>
<!DOCTYPE svg PUBLIC "-//W3C//DTD SVG 20010904//EN"
 "http://www.w3.org/TR/2001/REC-SVG-20010904/DTD/svg10.dtd">
<svg version="1.0" xmlns="http://www.w3.org/2000/svg"
 width="1080.000000pt" height="1080.000000pt" viewBox="0 0 1080.000000 1080.000000"
 preserveAspectRatio="xMidYMid meet">

<g transform="translate(0.000000,1080.000000) scale(0.100000,-0.100000)"
fill="#000000" stroke="none">
<path d="M6884 10139 c-3 -5 -10 -7 -15 -3 -5 3 -8 0 -7 -8 2 -7 -3 -12 -9
-10 -7 1 -12 -4 -10 -10 1 -7 -4 -12 -10 -10 -7 1 -12 -4 -10 -10 1 -7 -4 -12
-10 -10 -7 1 -12 -4 -10 -10 1 -7 -4 -12 -10 -10 -7 1 -12 -4 -10 -10 1 -7 -4
-12 -10 -10 -7 1 -12 -4 -10 -10 1 -7 -4 -12 -10 -10 -7 1 -12 -4 -10 -10 1
-7 -4 -12 -10 -10 -7 1 -12 -4 -10 -10 1 -7 -4 -12 -10 -10 -7 1 -12 -4 -10
-10 1 -7 -4 -12 -10 -10 -7 1 -12 -4 -10 -10 1 -7 -4 -12 -10 -11 -7 2 -12 -3
-10 -10 1 -6 -4 -11 -10 -10 -7 2 -12 -3 -10 -10 1 -6 -4 -11 -10 -10 -7 2
-12 -3 -10 -10 1 -6 -4 -11 -11 -9 -8 1 -11 -2 -7 -8 3 -6 10 -8 15 -5 5 3 11
1 14 -4 5 -8 73 -28 117 -34 8 -2 19 -5 24 -8 6 -4 35 -14 65 -24 85 -27 333
-127 467 -188 1125 -511 2022 -1492 2435 -2662 515 -1459 272 -3073 -646
-4298 -815 -1087 -2017 -1750 -3368 -1858 -195 -15 -670 -7 -848 15 -878 109
-1626 410 -2311 933 -202 154 -483 417 -666 623 -376 424 -730 1037 -904 1565
-12 39 -25 72 -28 75 -3 3 -7 14 -9 25 -2 11 -9 37 -17 58 -8 20 -15 40 -14
43 0 3 -2 9 -6 12 -4 4 -5 0 -3 -8 1 -8 -3 -14 -10 -12 -6 1 -11 -4 -10 -10 2
-7 -3 -12 -10 -10 -6 1 -11 -4 -10 -10 2 -7 -3 -12 -10 -10 -6 1 -11 -4 -10
-10 2 -7 -3 -12 -10 -10 -6 1 -11 -4 -10 -10 2 -7 -3 -12 -10 -10 -6 1 -11 -4
-10 -10 2 -7 -3 -12 -10 -10 -6 1 -11 -4 -10 -10 2 -7 -3 -12 -10 -10 -6 1
-11 -4 -10 -10 2 -7 -3 -12 -10 -10 -6 1 -11 -4 -10 -10 2 -7 -3 -12 -10 -10
-6 1 -11 -4 -10 -10 2 -7 -3 -12 -10 -10 -6 1 -11 -4 -10 -10 2 -7 -3 -12 -10
-10 -6 1 -11 -4 -10 -10 2 -7 -3 -12 -10 -10 -6 1 -11 -4 -10 -10 2 -7 -4 -12
-12 -10 -10 3 -9 -3 5 -19 11 -12 14 -19 8 -15 -7 4 -13 2 -13 -3 0 -6 3 -11
8 -11 4 0 8 -12 9 -26 0 -15 5 -29 10 -33 4 -3 10 -17 11 -30 9 -61 143 -384
240 -578 689 -1373 1970 -2355 3465 -2657 379 -77 652 -100 1087 -93 375 6
558 25 896 92 1333 266 2509 1078 3235 2235 349 555 587 1179 693 1817 56 336
61 401 61 833 0 432 -5 502 -60 832 -269 1597 -1287 2950 -2758 3663 -152 74
-477 209 -525 219 -9 1 -26 6 -37 10 -70 27 -114 35 -121 25z m21 -9 c4 -6 1
-9 -7 -8 -7 2 -12 -3 -10 -9 1 -7 -4 -12 -10 -10 -7 1 -12 -4 -10 -10 1 -7 -4
-12 -10 -10 -7 1 -12 -4 -10 -10 1 -7 -4 -12 -10 -10 -7 1 -12 -4 -10 -10 1
-7 -4 -12 -10 -10 -7 1 -12 -4 -10 -10 1 -7 -4 -12 -10 -10 -7 1 -12 -4 -10
-10 1 -7 -4 -12 -10 -10 -7 1 -12 -4 -10 -10 1 -7 -4 -12 -10 -10 -7 1 -12 -4
-10 -10 1 -7 -4 -12 -10 -10 -7 1 -12 -4 -10 -10 1 -7 -4 -12 -10 -10 -7 1
-12 -4 -10 -10 1 -7 -4 -12 -10 -10 -7 1 -12 -4 -11 -10 2 -7 -3 -12 -10 -10
-6 1 -11 -4 -10 -10 2 -7 -3 -12 -10 -10 -6 1 -11 -4 -9 -11 1 -8 -2 -11 -9
-6 -7 4 40 58 122 140 74 74 135 134 136 134 1 0 5 -5 8 -10z m-5978 -6034 c0
-8 -5 -14 -11 -13 -6 1 -10 -4 -8 -10 1 -7 -4 -12 -10 -10 -7 1 -12 -4 -10
-10 1 -7 -4 -12 -10 -10 -7 1 -12 -4 -10 -10 1 -7 -4 -12 -10 -10 -7 1 -12 -4
-10 -10 1 -7 -4 -12 -10 -10 -7 1 -12 -4 -10 -10 1 -7 -4 -12 -10 -10 -7 1
-12 -4 -10 -10 1 -7 -4 -12 -10 -10 -7 1 -12 -4 -11 -10 2 -7 -3 -12 -10 -10
-6 1 -11 -4 -10 -10 2 -7 -3 -12 -10 -10 -6 1 -11 -4 -10 -10 2 -7 -3 -12 -10
-10 -6 1 -11 -4 -10 -10 2 -7 -3 -12 -10 -10 -6 1 -11 -3 -10 -9 1 -6 -5 -11
-13 -11 -9 0 40 56 108 124 67 68 123 123 124 123 0 0 1 -6 1 -14z"/>
<path d="M5862 9108 c2 -7 -3 -12 -9 -10 -7 1 -12 -4 -10 -10 1 -7 -4 -12 -10
-10 -7 1 -12 -4 -10 -10 1 -7 -4 -12 -10 -10 -7 1 -12 -4 -10 -10 1 -7 -4 -12
-10 -10 -7 1 -12 -4 -10 -10 1 -7 -4 -12 -10 -10 -7 1 -12 -4 -10 -10 1 -7 -4
-12 -10 -10 -7 1 -12 -4 -10 -10 1 -7 -4 -12 -10 -10 -7 1 -12 -4 -10 -10 1
-7 -4 -12 -10 -10 -7 1 -12 -4 -10 -10 1 -7 -4 -12 -10 -10 -7 1 -12 -4 -10
-10 1 -7 -4 -12 -10 -10 -7 1 -12 -4 -10 -10 1 -7 -4 -12 -10 -11 -7 2 -12 -3
-10 -10 1 -6 -4 -11 -10 -10 -7 2 -12 -3 -10 -10 1 -6 -4 -11 -10 -10 -7 2
-12 -3 -10 -10 1 -6 -4 -11 -10 -10 -7 2 -12 -3 -10 -10 1 -6 -4 -11 -11 -9
-6 1 -11 -4 -10 -10 2 -7 -3 -12 -10 -10 -6 1 -11 -4 -10 -10 2 -7 -3 -12 -10
-10 -6 1 -11 -4 -10 -10 2 -7 -3 -12 -10 -10 -6 1 -11 -4 -10 -10 2 -7 -3 -12
-10 -10 -6 1 -11 -4 -10 -10 2 -7 -3 -12 -10 -10 -6 1 -11 -4 -10 -10 2 -7 -3
-12 -10 -10 -6 1 -11 -4 -10 -10 2 -7 -3 -12 -10 -10 -6 1 -11 -4 -10 -10 2
-7 -3 -12 -10 -10 -6 1 -11 -4 -10 -10 2 -7 -3 -12 -10 -10 -6 1 -11 -4 -10
-10 2 -7 -3 -12 -10 -10 -6 1 -11 -4 -10 -10 2 -7 -3 -12 -10 -10 -6 1 -11 -4
-10 -10 2 -7 -3 -12 -10 -10 -6 1 -11 -4 -10 -10 2 -7 -4 -11 -12 -10 -8 2
-11 0 -7 -5 5 -4 23 -8 40 -8 27 0 32 -4 37 -30 3 -16 5 -40 4 -52 -1 -13 -2
-117 -3 -233 l-1 -210 -92 0 -93 0 -60 110 c-33 60 -64 110 -68 110 -5 0 -6 4
-2 9 5 10 -11 24 -31 27 -6 1 -10 -33 -11 -95 -1 -53 -1 -111 -2 -128 l-1 -33
-70 0 -70 0 -1 35 c-2 48 -3 52 -12 62 -5 4 -7 1 -5 -7 2 -8 -3 -14 -9 -13 -7
2 -12 -3 -10 -10 1 -6 -4 -11 -10 -10 -7 2 -12 -3 -10 -10 1 -6 -4 -11 -10
-10 -7 2 -12 -3 -10 -10 1 -6 -4 -11 -10 -10 -7 2 -12 -3 -10 -10 1 -6 -4 -11
-10 -10 -7 2 -12 -3 -10 -10 1 -6 -4 -11 -10 -10 -7 2 -12 -3 -10 -10 1 -6 -4
-11 -10 -10 -7 2 -12 -3 -10 -10 1 -6 -4 -11 -11 -9 -6 1 -11 -4 -10 -10 2 -7
-3 -12 -10 -10 -6 1 -11 -4 -10 -10 2 -7 -3 -12 -10 -10 -6 1 -11 -4 -10 -10
2 -7 -3 -12 -10 -10 -6 1 -11 -4 -10 -10 2 -7 -3 -12 -10 -10 -6 1 -11 -4 -10
-10 2 -7 -3 -12 -10 -10 -6 1 -11 -4 -10 -10 2 -7 -3 -12 -10 -10 -6 1 -11 -4
-10 -10 2 -7 -3 -12 -10 -10 -6 1 -11 -4 -10 -10 2 -7 -3 -12 -10 -10 -6 1
-11 -4 -10 -10 2 -7 -3 -12 -10 -10 -6 1 -11 -4 -10 -10 2 -7 -3 -12 -10 -10
-6 1 -11 -4 -10 -10 2 -7 -3 -12 -10 -10 -6 1 -11 -4 -10 -10 2 -7 -3 -12 -10
-10 -6 1 -11 -4 -10 -10 2 -7 -3 -12 -10 -10 -6 1 -11 -4 -10 -10 2 -7 -3 -12
-10 -10 -6 1 -11 -4 -10 -10 2 -7 -3 -12 -10 -10 -6 1 -11 -4 -10 -10 2 -7 -3
-12 -10 -10 -6 1 -11 -4 -10 -10 2 -7 -2 -12 -8 -11 -6 1 -11 -4 -11 -12 0 -8
3 -13 6 -12 3 0 27 -20 53 -46 26 -26 46 -47 43 -47 -2 0 5 -26 16 -57 16 -46
20 -76 17 -143 -7 -135 -59 -225 -162 -277 -54 -28 -72 -30 -321 -36 l-110 -2
1 66 c1 48 -2 66 -12 66 -7 0 -12 -5 -11 -11 1 -6 -4 -10 -11 -8 -6 1 -11 -4
-10 -10 2 -7 -3 -12 -10 -10 -6 1 -11 -4 -10 -10 2 -7 -3 -12 -10 -10 -6 1
-11 -4 -10 -10 2 -7 -3 -12 -10 -10 -6 1 -11 -4 -10 -10 2 -7 -3 -12 -10 -10
-6 1 -11 -4 -10 -10 2 -7 -3 -12 -10 -10 -6 1 -11 -4 -10 -10 2 -7 -3 -12 -10
-10 -6 1 -11 -4 -10 -10 2 -7 -3 -12 -10 -10 -6 1 -11 -4 -10 -10 2 -7 -3 -12
-10 -10 -6 1 -11 -4 -10 -10 2 -7 -3 -12 -10 -10 -6 1 -11 -4 -10 -10 2 -7 -3
-12 -10 -10 -6 1 -11 -4 -10 -10 2 -7 -3 -12 -10 -10 -6 1 -11 -4 -10 -10 2
-7 -3 -12 -10 -10 -6 1 -11 -4 -10 -10 2 -7 -3 -12 -10 -10 -6 1 -11 -4 -10
-10 2 -7 -3 -12 -9 -10 -7 1 -12 -4 -10 -10 1 -7 -4 -12 -10 -11 -7 2 -12 -3
-10 -10 1 -6 -4 -11 -10 -10 -7 2 -12 -3 -10 -10 1 -6 -4 -11 -10 -10 -7 2
-12 -3 -10 -10 1 -6 -4 -11 -10 -10 -7 2 -12 -3 -10 -10 1 -6 -4 -11 -10 -10
-7 2 -12 -3 -10 -10 1 -6 -4 -11 -10 -10 -7 2 -12 -3 -10 -10 1 -6 -4 -11 -10
-10 -7 2 -12 -3 -10 -10 1 -6 -4 -11 -10 -10 -7 2 -12 -3 -10 -10 1 -6 -4 -11
-10 -10 -7 2 -12 -3 -10 -10 1 -6 -4 -11 -10 -10 -7 2 -12 -3 -10 -10 1 -6 -4
-11 -10 -10 -7 2 -12 -3 -10 -10 1 -6 -4 -11 -10 -10 -7 2 -12 -3 -10 -10 1
-6 -4 -11 -10 -10 -7 2 -12 -3 -10 -10 1 -6 -4 -11 -10 -10 -7 2 -12 -3 -10
-10 1 -6 -3 -11 -9 -10 -6 1 -11 -5 -11 -13 0 -9 136 120 302 286 166 166 302
295 302 286 0 -8 -5 -14 -11 -13 -6 1 -10 -4 -8 -11 1 -6 -4 -11 -10 -10 -7 2
-12 -3 -10 -10 1 -6 -4 -11 -10 -10 -7 2 -12 -3 -10 -10 1 -6 -4 -11 -10 -10
-7 2 -12 -3 -10 -10 1 -6 -4 -11 -10 -10 -7 2 -12 -3 -10 -10 1 -6 -4 -11 -10
-10 -7 2 -12 -3 -10 -10 1 -6 -4 -11 -10 -10 -7 2 -12 -3 -10 -10 1 -6 -4 -11
-10 -10 -7 2 -12 -3 -10 -10 1 -6 -4 -11 -10 -10 -7 2 -12 -3 -10 -10 1 -6 -4
-11 -10 -10 -7 2 -12 -3 -10 -10 1 -6 -4 -11 -10 -10 -7 2 -12 -3 -10 -10 1
-6 -4 -11 -10 -10 -7 2 -12 -3 -10 -10 1 -6 -4 -11 -10 -10 -7 2 -12 -3 -10
-10 1 -6 -4 -11 -10 -10 -7 2 -12 -3 -11 -9 2 -7 -3 -12 -10 -10 -6 1 -11 -4
-10 -10 2 -7 -3 -12 -10 -10 -6 1 -11 -4 -10 -10 2 -7 -3 -12 -10 -10 -6 1
-11 -4 -10 -10 2 -7 -3 -12 -10 -10 -6 1 -11 -4 -10 -10 2 -7 -3 -12 -10 -10
-6 1 -11 -4 -10 -10 2 -7 -3 -12 -10 -10 -6 1 -11 -4 -10 -10 2 -7 -3 -12 -10
-10 -6 1 -11 -4 -10 -10 2 -7 -3 -12 -10 -10 -6 1 -11 -4 -10 -10 2 -7 -3 -12
-10 -10 -6 1 -11 -4 -10 -10 2 -7 -3 -12 -10 -10 -6 1 -11 -4 -10 -10 2 -7 -3
-12 -10 -10 -6 1 -11 -4 -10 -10 2 -7 -3 -12 -10 -10 -6 1 -11 -4 -10 -10 2
-7 -3 -12 -10 -10 -6 1 -11 -4 -10 -10 2 -7 -3 -12 -10 -10 -6 1 -11 -4 -10
-10 2 -7 -3 -12 -10 -10 -6 1 -11 -4 -10 -10 2 -7 -3 -12 -10 -10 -6 1 -11 -3
-10 -9 1 -6 -4 -11 -11 -11 -7 0 -13 12 -13 26 0 14 -1 54 -2 89 l-1 62 -175
0 -175 0 2 -172 3 -173 173 -3 172 -2 0 -70 0 -70 -50 0 -50 0 0 -50 0 -50
-50 0 c-47 0 -50 2 -50 25 0 20 5 25 25 25 20 0 25 5 25 25 0 20 -5 25 -25 25
-20 0 -25 -5 -25 -25 0 -20 -5 -25 -25 -25 -23 0 -25 4 -25 45 l0 45 75 0 c73
0 75 1 75 25 l0 25 -126 0 c-124 0 -125 0 -122 -22 2 -15 11 -24 26 -26 19 -3
22 -9 22 -48 0 -40 2 -44 25 -44 23 0 25 -3 25 -50 0 -47 -2 -50 -25 -50 -20
0 -25 5 -25 25 0 23 -3 25 -50 25 -47 0 -50 2 -50 25 0 20 5 25 25 25 20 0 25
5 25 25 0 20 -5 25 -25 25 -18 0 -25 5 -25 20 0 13 -7 20 -20 20 -17 0 -20 7
-20 50 0 43 3 50 20 50 18 0 20 7 20 75 0 73 -1 75 -25 75 -20 0 -25 -5 -25
-25 0 -23 -4 -25 -45 -25 l-45 0 0 50 c0 47 -2 50 -25 50 -20 0 -25 5 -25 25
0 23 -3 25 -50 25 -47 0 -50 -2 -50 -25 0 -20 -5 -25 -25 -25 -23 0 -25 3 -25
50 l0 50 94 0 c90 0 95 -1 98 -22 2 -15 11 -24 25 -26 14 -2 23 -11 25 -25 4
-32 52 -31 56 1 2 14 10 22 23 22 16 0 19 7 19 50 0 47 -2 50 -25 50 -20 0
-25 -5 -25 -25 0 -23 -4 -25 -45 -25 -41 0 -45 2 -45 25 l0 25 -100 0 -100 0
0 -25 c0 -20 -5 -25 -25 -25 -20 0 -25 -5 -25 -25 0 -20 -5 -25 -25 -25 l-25
0 0 -150 0 -150 25 0 c20 0 25 -5 25 -26 0 -21 4 -25 23 -22 19 3 22 10 25 50
3 39 6 47 25 50 14 2 23 11 25 26 3 18 -1 22 -22 22 -21 0 -26 5 -26 25 0 20
-5 25 -25 25 -20 0 -25 5 -25 25 0 23 3 25 50 25 47 0 50 -2 50 -25 0 -18 5
-25 19 -25 17 0 20 -8 23 -47 3 -44 5 -48 28 -48 18 0 26 6 28 23 2 14 10 22
22 22 12 0 20 -8 22 -22 2 -15 11 -24 26 -26 16 -3 22 -10 22 -28 0 -23 -2
-24 -75 -24 l-75 0 0 -45 c0 -41 2 -45 25 -45 20 0 25 -5 25 -25 0 -20 5 -25
25 -25 34 0 37 -47 3 -52 -15 -2 -24 -11 -26 -25 -2 -14 -11 -23 -25 -25 -14
-2 -23 -11 -25 -25 -3 -19 1 -23 22 -23 21 0 26 -5 26 -25 0 -20 -5 -25 -25
-25 -23 0 -25 -3 -25 -50 0 -47 2 -50 25 -50 20 0 25 -5 25 -25 0 -23 -4 -25
-45 -25 l-45 0 0 50 c0 47 -2 50 -25 50 -20 0 -25 5 -25 25 0 20 5 25 25 25
20 0 25 5 25 25 0 23 -3 25 -50 25 -47 0 -50 2 -50 25 0 20 -5 25 -25 25 l-25
0 0 -125 0 -125 50 0 c47 0 50 -2 50 -25 0 -23 -3 -25 -50 -25 l-50 0 0 -100
0 -100 50 0 c47 0 50 2 50 25 0 20 5 25 25 25 20 0 25 5 25 25 0 33 37 35 42
3 2 -15 11 -24 26 -26 16 -3 22 -10 22 -28 0 -19 -5 -24 -26 -24 -25 0 -26 -2
-22 -50 3 -48 2 -50 -23 -50 -23 0 -26 3 -21 25 4 22 1 25 -22 25 -21 0 -26
-5 -26 -25 0 -21 -5 -25 -29 -25 -25 0 -28 3 -23 25 4 22 1 25 -22 25 -21 0
-26 -5 -26 -25 0 -21 -5 -25 -27 -25 l-28 0 3 175 3 175 -176 0 -175 0 0 -169
c0 -94 4 -172 8 -175 4 -2 50 -6 101 -8 51 -2 95 -6 98 -11 2 -4 -1 -6 -9 -5
-7 2 -12 -3 -11 -9 2 -7 -3 -12 -10 -10 -6 1 -11 -4 -10 -10 2 -7 -3 -12 -10
-10 -6 1 -11 -4 -10 -10 2 -7 -3 -12 -10 -10 -6 1 -11 -4 -10 -10 2 -7 -3 -12
-10 -10 -6 1 -11 -4 -10 -10 2 -7 -3 -12 -10 -10 -6 1 -11 -4 -9 -11 1 -8 -1
-11 -6 -8 -12 7 -104 -88 -95 -98 5 -4 1 -6 -7 -4 -8 2 -14 -3 -13 -9 2 -7 -3
-12 -10 -10 -6 1 -11 -4 -10 -10 2 -7 -3 -12 -10 -10 -6 1 -11 -4 -10 -10 2
-7 -3 -12 -10 -10 -6 1 -11 -4 -10 -10 2 -7 -3 -12 -10 -10 -6 1 -11 -4 -10
-10 2 -7 -3 -12 -10 -10 -6 1 -11 -4 -10 -10 2 -7 -3 -12 -10 -10 -6 1 -11 -4
-10 -10 2 -7 -3 -12 -10 -10 -6 1 -11 -4 -10 -10 2 -7 -3 -12 -10 -10 -6 1
-11 -4 -10 -10 2 -7 -3 -12 -10 -10 -6 1 -11 -4 -10 -10 2 -7 -3 -12 -10 -10
-6 1 -11 -4 -9 -11 1 -8 -2 -11 -7 -8 -5 3 -14 -1 -21 -9 -10 -12 -16 -13 -27
-3 -11 9 -13 8 -11 -3 2 -8 -3 -13 -9 -12 -7 2 -12 -3 -10 -10 1 -6 -3 -11 -9
-10 -6 1 -11 -4 -11 -12 0 -8 5 -11 11 -8 7 5 7 2 0 -8 -12 -15 -9 -109 4
-119 4 -3 8 -24 10 -48 2 -36 43 -224 67 -307 5 -16 -1 -24 -28 -37 -95 -45
-55 -168 56 -168 l33 0 48 -127 c27 -71 75 -184 107 -252 39 -82 63 -147 70
-190 12 -80 42 -143 87 -182 l33 -29 -100 0 c-113 0 -143 -8 -167 -45 -37 -56
-10 -127 55 -145 33 -9 42 -17 60 -60 39 -90 54 -170 54 -275 -1 -145 -49
-325 -87 -325 -29 0 -68 -24 -82 -51 -21 -42 -17 -75 15 -111 l29 -33 616 -2
616 -3 143 -94 c625 -414 1374 -631 2117 -613 884 22 1664 314 2350 880 129
106 393 377 501 512 287 361 497 743 638 1162 186 553 238 1134 155 1728 -189
1343 -1118 2496 -2396 2974 -201 75 -521 163 -634 175 -22 2 -46 7 -54 10 -8
3 -40 8 -71 9 -30 2 -61 7 -67 11 -8 5 -11 2 -10 -6z m23 -18 c4 -6 1 -9 -7
-8 -7 2 -12 -3 -10 -9 1 -7 -4 -12 -10 -10 -7 1 -12 -4 -10 -10 1 -7 -4 -12
-10 -10 -7 1 -12 -4 -10 -10 1 -7 -4 -12 -10 -10 -7 1 -12 -4 -10 -10 1 -7 -4
-12 -10 -10 -7 1 -12 -4 -10 -10 1 -7 -4 -12 -10 -10 -7 1 -12 -4 -10 -10 1
-7 -4 -12 -10 -10 -7 1 -12 -4 -10 -10 1 -7 -4 -12 -10 -10 -7 1 -12 -4 -10
-10 1 -7 -4 -12 -10 -10 -7 1 -12 -4 -10 -10 1 -7 -4 -12 -10 -10 -7 1 -12 -4
-10 -10 1 -7 -4 -12 -10 -10 -7 1 -12 -4 -11 -10 2 -7 -3 -12 -10 -10 -6 1
-11 -4 -10 -10 2 -7 -3 -12 -10 -10 -6 1 -11 -4 -10 -10 2 -7 -3 -12 -10 -10
-6 1 -11 -4 -10 -10 2 -7 -3 -12 -10 -10 -6 1 -11 -4 -9 -11 1 -6 -4 -11 -10
-10 -7 2 -12 -3 -10 -10 1 -6 -4 -11 -10 -10 -7 2 -12 -3 -10 -10 1 -6 -4 -11
-10 -10 -7 2 -12 -3 -10 -10 1 -6 -4 -11 -10 -10 -7 2 -12 -3 -10 -10 1 -6 -4
-11 -10 -10 -7 2 -12 -3 -10 -10 1 -6 -4 -11 -10 -10 -7 2 -12 -3 -10 -10 1
-6 -4 -11 -10 -10 -7 2 -12 -3 -10 -10 1 -6 -4 -11 -10 -10 -7 2 -12 -3 -10
-10 1 -6 -4 -11 -10 -10 -7 2 -12 -3 -10 -10 1 -6 -4 -11 -10 -10 -7 2 -12 -3
-10 -10 1 -6 -4 -11 -10 -10 -7 2 -11 -4 -10 -12 2 -8 0 -12 -4 -8 -4 4 -14 3
-23 -4 -9 -6 108 113 259 265 151 152 276 277 277 277 1 0 5 -5 8 -10z m252
-568 c23 -12 53 -36 66 -54 26 -34 49 -102 39 -112 -3 -3 -36 -6 -73 -6 -63 0
-67 1 -73 25 -10 41 -42 65 -84 65 -74 0 -112 -54 -112 -159 0 -67 12 -106 42
-138 47 -50 127 -33 148 32 l12 35 69 0 c67 0 69 -1 69 -25 0 -38 -35 -101
-72 -128 -47 -34 -91 -47 -167 -47 -153 0 -251 101 -251 259 0 139 62 234 180
272 45 15 162 4 207 -19z m-487 -242 l0 -260 -75 0 -75 0 0 260 0 260 75 0 75
0 0 -260z m1085 13 c49 -137 90 -254 93 -261 3 -10 -13 -12 -74 -10 l-78 3
-20 63 -20 62 -78 0 -77 0 -19 -62 -20 -63 -77 -3 c-60 -2 -76 0 -73 10 3 7
45 124 94 260 l89 248 86 0 86 0 88 -247z m315 47 l0 -199 128 -3 127 -3 3
-57 3 -58 -206 0 -205 0 0 260 0 260 75 0 75 0 0 -200z m-2003 -85 c0 -8 -4
-12 -9 -9 -5 3 -6 10 -3 15 9 13 12 11 12 -6z m-180 -179 c0 -8 -5 -14 -11
-13 -6 1 -10 -4 -8 -10 1 -7 -4 -12 -10 -10 -7 1 -12 -4 -10 -10 1 -7 -4 -12
-10 -10 -7 1 -12 -4 -10 -10 1 -7 -4 -12 -10 -10 -7 1 -12 -4 -10 -10 1 -7 -4
-12 -10 -10 -7 1 -12 -4 -10 -10 1 -7 -4 -12 -10 -10 -7 1 -12 -4 -10 -10 1
-7 -4 -12 -10 -10 -7 1 -12 -4 -10 -10 1 -7 -4 -12 -10 -10 -7 1 -12 -4 -10
-10 1 -7 -4 -12 -10 -10 -7 1 -12 -4 -10 -10 1 -7 -4 -12 -10 -10 -7 1 -12 -4
-11 -10 2 -7 -3 -12 -10 -10 -6 1 -11 -4 -10 -10 2 -7 -3 -12 -10 -10 -6 1
-11 -4 -10 -10 2 -7 -3 -12 -10 -10 -6 1 -11 -4 -10 -10 2 -7 -3 -12 -10 -10
-6 1 -11 -4 -10 -10 2 -7 -3 -12 -10 -10 -6 1 -11 -4 -9 -11 1 -6 -4 -11 -10
-10 -7 2 -12 -3 -10 -10 1 -6 -4 -11 -10 -10 -7 2 -12 -3 -10 -10 1 -6 -4 -11
-10 -10 -7 2 -12 -3 -10 -10 1 -6 -4 -11 -10 -10 -7 2 -12 -3 -10 -10 1 -6 -4
-11 -10 -10 -7 2 -12 -3 -10 -10 1 -6 -4 -11 -10 -10 -7 2 -12 -3 -10 -10 1
-6 -4 -11 -10 -10 -7 2 -12 -3 -10 -10 1 -6 -4 -11 -10 -10 -7 2 -12 -2 -11
-8 1 -6 -5 -11 -13 -11 -9 0 94 110 228 244 133 134 243 243 244 243 0 0 1 -6
1 -14z m1207 -363 c-10 -22 -13 -49 -9 -69 7 -42 72 -114 170 -189 311 -240
401 -322 599 -550 205 -235 228 -269 195 -302 -7 -7 9 -26 55 -62 110 -88 125
-123 81 -189 -14 -20 -25 -49 -25 -65 0 -29 38 -77 62 -77 6 0 -2 -15 -20 -33
-23 -24 -32 -42 -32 -66 l0 -34 87 7 c48 4 91 12 94 18 5 8 17 7 39 -1 18 -6
57 -11 86 -11 30 0 54 -4 54 -10 0 -5 -12 -10 -27 -10 -16 -1 -53 -9 -83 -20
-34 -12 -59 -15 -65 -9 -5 5 -33 9 -62 9 -41 0 -57 -5 -73 -22 -17 -19 -18
-23 -5 -31 18 -10 20 -33 3 -44 -18 -11 -16 -45 2 -60 8 -6 12 -15 8 -19 -4
-4 0 -12 9 -19 14 -11 14 -14 -5 -41 -39 -53 -38 -84 2 -133 20 -24 36 -49 36
-56 0 -15 -78 -123 -104 -144 -16 -13 -15 -15 14 -27 l31 -13 -16 -38 c-9 -21
-35 -67 -59 -103 -24 -36 -71 -116 -105 -178 -63 -117 -170 -281 -238 -367
-22 -27 -94 -108 -161 -179 -187 -198 -282 -332 -282 -398 0 -38 27 -95 53
-113 12 -8 18 -17 15 -20 -9 -9 -67 44 -83 76 -18 34 -19 84 -3 130 18 54 119
195 220 308 159 178 188 213 246 301 80 121 139 244 164 341 19 78 20 91 8
187 -14 119 -10 129 44 114 l36 -10 40 60 c22 33 40 64 40 70 0 5 -8 25 -19
46 -10 20 -24 55 -31 77 -7 22 -21 50 -32 62 l-20 21 27 14 c26 14 25 15 -45
27 -61 11 -73 11 -83 -1 -31 -37 -62 -46 -128 -38 -35 4 -69 4 -74 0 -10 -8
-53 -13 -235 -26 -47 -4 -91 -11 -97 -17 -9 -6 -18 -6 -27 2 -22 18 -198 18
-356 -2 -80 -9 -168 -20 -197 -23 -62 -6 -108 -35 -137 -86 -20 -35 -20 -37
-3 -55 9 -11 17 -27 17 -35 0 -9 9 -37 21 -63 22 -50 19 -95 -6 -95 -33 0 -21
-28 68 -168 51 -81 97 -154 101 -162 18 -37 -33 36 -108 155 -45 72 -88 130
-96 130 -11 0 -18 -21 -25 -75 -6 -41 -17 -92 -24 -114 -8 -24 -11 -54 -6 -80
3 -22 8 -56 10 -75 3 -19 14 -42 25 -53 11 -10 21 -26 22 -36 4 -46 16 -70 39
-77 15 -5 19 -16 19 -58 0 -28 9 -83 20 -121 11 -39 32 -134 47 -211 41 -215
33 -465 -23 -705 -9 -36 -19 -122 -22 -192 l-7 -128 26 -10 c76 -32 111 -293
74 -542 -9 -56 -15 -127 -14 -157 2 -57 -14 -181 -25 -199 -3 -6 -1 -34 5 -63
6 -30 10 -85 10 -123 0 -67 1 -69 44 -115 39 -42 65 -86 65 -111 0 -18 -74
-53 -120 -57 -44 -3 -51 -1 -79 29 -17 18 -33 46 -37 63 -4 16 -20 46 -35 65
-18 21 -29 46 -29 65 0 16 -6 48 -14 70 -8 22 -14 74 -14 116 -1 75 -22 160
-47 189 -7 8 -13 40 -13 70 0 66 -27 178 -50 203 -12 14 -15 40 -14 132 0 87
-3 116 -14 126 -20 16 -18 42 7 83 14 25 18 40 11 52 -5 9 -6 32 -2 50 4 19 4
53 -2 76 -5 24 -7 52 -4 62 11 44 -16 293 -44 401 -40 151 -60 273 -60 365 0
76 0 77 -24 73 -13 -3 -33 0 -45 6 -18 10 -21 8 -26 -11 -2 -13 -11 -54 -20
-91 -18 -80 -81 -238 -158 -392 -63 -127 -89 -201 -117 -338 -16 -79 -18 -107
-9 -145 8 -39 7 -48 -5 -58 -9 -6 -13 -14 -10 -17 8 -8 -16 -116 -34 -151 -8
-17 -14 -50 -14 -74 1 -34 -4 -49 -22 -66 -14 -12 -28 -39 -32 -60 -4 -22 -20
-58 -36 -82 -29 -44 -68 -143 -68 -174 0 -10 -15 -33 -34 -51 -43 -44 -77
-146 -78 -242 -1 -53 -7 -77 -23 -101 -11 -17 -24 -39 -28 -49 -4 -10 -11 -16
-16 -13 -5 3 -14 -1 -21 -9 -7 -8 -21 -15 -31 -15 -12 0 -32 -24 -59 -70 -22
-39 -45 -70 -50 -70 -4 0 -23 -16 -41 -35 -57 -60 -124 -38 -139 46 -10 52 1
77 58 134 55 55 137 259 128 317 -4 26 -1 49 10 69 8 17 18 57 21 88 3 31 10
64 15 74 5 10 15 86 23 170 8 83 17 179 20 212 7 74 93 251 121 248 13 -1 15
5 11 32 -6 35 4 45 43 45 10 0 22 6 27 13 4 6 11 140 14 297 9 376 14 402 143
764 50 138 53 154 42 203 -6 25 -3 35 17 55 14 13 27 40 31 63 3 22 13 45 21
52 11 8 17 31 19 73 2 34 8 66 13 71 17 17 -4 101 -32 124 -20 16 -26 34 -34
100 -6 44 -20 107 -31 140 -12 32 -20 72 -17 88 3 23 -6 37 -48 81 -43 46 -59
55 -106 65 -176 35 -221 43 -282 51 -45 5 -76 15 -90 28 -12 11 -32 25 -44 31
-31 16 -30 56 3 115 14 25 29 46 32 46 4 0 23 10 42 21 l34 21 -29 24 c-38 30
-25 48 25 34 19 -6 62 -10 95 -9 33 0 85 -7 115 -16 30 -8 72 -18 93 -22 34
-5 37 -4 37 17 0 16 -55 78 -189 214 -157 158 -198 194 -238 208 -27 10 -74
42 -108 72 -60 54 -68 80 -19 57 l26 -11 -31 37 c-16 20 -28 40 -25 45 9 15
30 8 54 -17 29 -31 37 -26 14 9 -26 41 -8 44 33 5 l36 -34 -23 33 c-16 24 -19
37 -12 44 8 8 15 8 26 -1 12 -10 16 -8 21 9 7 21 8 21 42 -11 26 -25 32 -28
24 -12 -18 36 -13 48 12 26 12 -11 28 -18 34 -16 7 3 16 -2 19 -11 12 -31 30
-17 26 19 -5 45 13 46 51 3 19 -22 26 -26 22 -13 -15 42 -18 68 -7 61 26 -16
71 -96 91 -160 17 -55 46 -103 154 -252 103 -143 136 -182 150 -178 9 3 29 -4
43 -15 15 -12 35 -21 45 -21 16 0 19 -8 19 -50 0 -27 2 -50 4 -50 3 0 16 4 30
10 39 14 37 68 -4 95 -17 11 -44 47 -62 83 -18 35 -36 66 -40 68 -4 3 -8 14
-8 24 0 10 -6 20 -12 23 -9 2 -13 31 -12 98 0 74 5 104 22 142 30 67 112 150
175 177 46 20 62 22 141 16 78 -5 95 -10 147 -41 58 -36 132 -127 145 -181 3
-13 9 -24 13 -24 11 0 168 310 244 480 36 80 95 210 132 290 38 80 76 170 87
200 17 49 18 51 13 15 -4 -22 -21 -74 -39 -115 -104 -237 -233 -511 -328 -698
-71 -139 -107 -220 -103 -232 3 -10 1 -21 -5 -25 -5 -3 -10 -34 -11 -68 0 -34
-7 -84 -15 -112 l-13 -50 4 55 c3 37 1 50 -5 40 -5 -8 -10 -23 -10 -33 0 -34
-53 -171 -77 -200 -13 -16 -23 -24 -23 -19 0 5 -13 12 -30 14 -47 7 -37 -19
13 -33 23 -6 103 -11 181 -11 78 0 173 -6 219 -14 71 -12 107 -12 292 2 154
12 213 19 221 30 6 8 16 14 23 14 18 0 13 11 -15 32 -36 29 -19 38 50 29 33
-5 67 -6 75 -4 9 2 49 -5 90 -15 54 -14 99 -18 164 -16 56 2 95 0 103 -7 24
-20 114 0 172 38 47 31 65 52 45 53 -5 0 -17 7 -27 15 -17 13 -18 16 -4 32 8
10 23 58 33 106 21 104 18 115 -58 183 -40 35 -52 42 -67 34 -10 -6 -27 -10
-38 -10 -18 0 -20 9 -24 113 -4 126 -17 161 -106 287 -83 118 -289 314 -501
475 -89 67 -190 163 -207 196 -21 41 -17 87 12 136 30 51 50 49 28 -4z m-994
-133 l0 -60 -160 0 -160 0 0 -75 0 -75 150 0 150 0 0 -60 0 -60 -150 0 -150 0
0 -70 0 -70 165 0 165 0 0 -60 0 -60 -245 0 -245 0 0 328 0 327 240 -3 240 -3
0 -59z m525 30 c68 -34 95 -77 95 -149 0 -67 -24 -112 -75 -142 l-35 -21 25
-20 c35 -28 44 -48 60 -137 7 -43 20 -95 29 -115 l15 -36 -83 0 -83 0 -12 43
c-6 23 -16 66 -21 95 -17 95 -36 112 -124 112 l-56 0 0 -125 0 -125 -80 0 -80
0 0 326 0 326 188 -4 c175 -3 190 -5 237 -28z m-2395 -1145 l0 -126 -122 3
-123 3 -3 123 -3 122 126 0 125 0 0 -125z m-600 0 c0 -18 -5 -25 -20 -25 -15
0 -20 7 -20 25 0 18 5 25 20 25 15 0 20 -7 20 -25z m50 -50 c0 -18 -5 -25 -20
-25 -15 0 -20 7 -20 25 0 18 5 25 20 25 15 0 20 -7 20 -25z m-142 -97 c-2 -15
-11 -24 -25 -26 -19 -3 -23 1 -23 22 0 21 5 26 26 26 21 0 25 -4 22 -22z m292
-3 c0 -18 -5 -25 -20 -25 -15 0 -20 7 -20 25 0 18 5 25 20 25 15 0 20 -7 20
-25z m0 -144 c0 -13 -8 -21 -22 -23 -15 -2 -24 -11 -26 -25 -2 -15 -10 -23
-22 -23 -12 0 -20 8 -22 23 -2 14 -11 23 -25 25 -15 2 -23 10 -23 23 0 17 8
19 70 19 62 0 70 -2 70 -19z m450 -146 l0 -75 -50 0 -50 0 0 -50 c0 -47 2 -50
25 -50 20 0 25 5 25 25 0 20 5 25 25 25 24 0 25 -2 25 -75 l0 -75 -50 0 -50 0
0 50 0 50 -50 0 c-47 0 -50 2 -50 25 l0 25 -100 0 -100 0 0 51 c0 47 -2 50
-22 47 -15 -2 -24 -11 -26 -25 -3 -20 -9 -23 -48 -23 -40 0 -44 2 -44 25 0 20
5 25 25 25 20 0 25 5 25 25 0 23 4 25 45 25 41 0 45 -2 45 -25 0 -23 3 -25 50
-25 47 0 50 -2 50 -25 0 -20 5 -25 25 -25 20 0 25 5 25 25 0 20 5 25 25 25 20
0 25 -5 25 -25 0 -23 3 -25 50 -25 47 0 50 2 50 25 0 20 5 25 25 25 23 0 25 3
25 50 0 47 2 50 25 50 24 0 25 -2 25 -75z m-550 -150 c0 -18 -5 -25 -20 -25
-15 0 -20 7 -20 25 0 18 5 25 20 25 15 0 20 -7 20 -25z m100 0 c0 -18 -5 -25
-20 -25 -15 0 -20 7 -20 25 0 18 5 25 20 25 15 0 20 -7 20 -25z m-290 -50 c0
-20 -5 -25 -25 -25 -20 0 -25 5 -25 25 0 20 5 25 25 25 20 0 25 -5 25 -25z
m240 -50 c0 -18 -5 -25 -20 -25 -15 0 -20 7 -20 25 0 18 5 25 20 25 15 0 20
-7 20 -25z m250 -50 l0 -75 -75 0 -75 0 0 75 0 75 75 0 75 0 0 -75z m100 50
c0 -20 -5 -25 -25 -25 -20 0 -25 5 -25 25 0 20 5 25 25 25 20 0 25 -5 25 -25z
m-398 -72 c3 -41 6 -48 26 -51 19 -3 22 -9 22 -53 0 -42 -3 -49 -20 -49 -15 0
-20 7 -20 25 0 23 -3 25 -50 25 l-50 0 0 50 c0 47 2 50 25 50 20 0 25 5 25 25
0 18 5 25 19 25 17 0 20 -8 23 -47z m98 -3 c0 -43 -3 -50 -20 -50 -17 0 -20 7
-20 50 0 43 3 50 20 50 17 0 20 -7 20 -50z m-490 -125 l0 -125 -125 0 -125 0
0 125 0 125 125 0 125 0 0 -125z m250 75 l0 -50 -50 0 c-47 0 -50 2 -50 25 0
20 5 25 25 25 20 0 25 5 25 25 0 20 5 25 25 25 23 0 25 -3 25 -50z m690 25 l0
-25 -100 0 -100 0 0 25 0 25 100 0 100 0 0 -25z m-400 -125 c0 -47 2 -50 25
-50 20 0 25 5 25 25 0 20 5 25 25 25 20 0 25 5 25 25 0 20 5 25 25 25 20 0 25
-5 25 -25 0 -20 5 -25 25 -25 20 0 25 5 25 25 0 23 3 25 50 25 47 0 50 -2 50
-25 0 -20 5 -25 25 -25 23 0 25 -3 25 -50 l0 -50 -75 0 c-73 0 -75 1 -75 25 0
20 -5 25 -25 25 -20 0 -25 5 -25 25 0 20 -5 25 -25 25 -20 0 -25 -5 -25 -25 0
-20 -5 -25 -25 -25 -20 0 -25 -5 -25 -25 0 -23 3 -25 50 -25 47 0 50 -2 50
-25 0 -23 -3 -25 -50 -25 -47 0 -50 2 -50 25 0 20 -5 25 -26 25 -23 0 -26 -3
-22 -25 5 -24 3 -25 -47 -25 -50 0 -52 1 -48 24 3 16 13 26 27 28 19 3 21 10
24 76 3 64 5 72 22 72 17 0 20 -7 20 -50z m-100 -75 c0 -18 -5 -25 -20 -25
-15 0 -20 7 -20 25 0 18 5 25 20 25 15 0 20 -7 20 -25z m-48 -50 c5 -22 2 -25
-22 -25 -24 0 -27 3 -22 25 3 15 11 25 22 25 11 0 19 -10 22 -25z m-482 -330
l0 -155 -25 0 -25 0 0 155 0 155 25 0 25 0 0 -155z m80 0 c0 -148 -1 -155 -20
-155 -19 0 -20 7 -20 155 0 148 1 155 20 155 19 0 20 -7 20 -155z m870 150 c0
-3 -10 -25 -22 -48 -27 -53 -30 -156 -5 -204 9 -18 17 -37 17 -43 0 -7 -127
-9 -412 -8 l-413 3 -3 140 c-1 76 0 145 2 152 4 10 89 13 421 13 228 0 415 -2
415 -5z m125 -48 l70 -44 3 -66 3 -67 -77 -35 c-43 -20 -84 -33 -91 -30 -21 8
-53 86 -53 130 0 52 46 155 69 155 4 0 38 -20 76 -43z m2596 -172 c7 -13 3
-12 -10 5 -11 14 -21 30 -21 35 0 11 14 -7 31 -40z m30 -47 c11 -21 11 -22 -4
-9 -10 7 -17 17 -17 22 0 15 9 10 21 -13z m29 -49 c0 -6 -4 -7 -10 -4 -5 3
-10 11 -10 16 0 6 5 7 10 4 6 -3 10 -11 10 -16z m46 -82 c31 -62 18 -52 -22
17 -15 27 -23 46 -16 42 7 -4 24 -31 38 -59z m-2391 34 c51 -23 91 -69 107
-124 16 -57 16 -329 0 -384 -16 -55 -56 -101 -107 -124 -38 -18 -89 -19 -950
-19 -696 0 -914 3 -923 12 -14 14 -15 47 -2 68 8 13 120 15 908 15 841 0 900
1 925 18 83 54 109 265 48 385 -40 78 39 72 -966 72 -687 0 -904 3 -913 12 -7
7 -12 24 -12 38 0 14 5 31 12 38 9 9 227 12 923 12 861 0 912 -1 950 -19z
m-45 -138 c36 -40 50 -89 50 -174 0 -83 -22 -158 -56 -190 l-26 -24 -815 2
c-448 1 -818 4 -820 7 -3 3 3 26 13 53 27 68 24 208 -5 283 -11 30 -21 58 -21
62 0 9 480 15 1154 13 l498 0 28 -32z m811 -572 c23 -28 24 -50 5 -77 -14 -19
-36 -19 -1050 -19 l-1035 0 -30 -29 c-54 -52 -75 -117 -75 -236 1 -118 23
-197 70 -241 25 -23 30 -24 292 -32 156 -5 579 -5 1027 0 418 6 770 6 782 2
47 -17 38 -100 -13 -119 -18 -7 -383 -10 -1058 -8 -1152 3 -1067 -2 -1138 76
-20 22 -42 58 -49 79 -6 21 -14 112 -16 203 -7 241 17 327 104 381 78 48 65
48 1146 46 l1019 -2 19 -24z m-167 -141 c3 -4 -7 -35 -22 -70 -24 -59 -27 -77
-26 -180 1 -82 6 -128 17 -159 10 -24 15 -47 11 -50 -3 -3 -428 -6 -944 -6
l-938 0 -26 24 c-72 68 -85 300 -22 394 41 61 -13 58 1008 55 515 -2 939 -5
942 -8z m2964 -378 c6 -9 12 -26 12 -39 0 -28 9 -29 49 -5 35 19 52 13 84 -31
20 -25 20 -26 -1 -60 -22 -39 -20 -47 14 -47 31 0 54 -26 54 -60 0 -47 -10
-60 -51 -66 -21 -4 -39 -8 -39 -10 0 -1 9 -19 21 -39 20 -33 20 -37 5 -61 -28
-42 -59 -50 -95 -25 -29 21 -31 21 -37 4 -16 -52 -30 -68 -66 -71 -39 -3 -68
17 -68 48 0 28 -16 33 -51 14 -26 -13 -36 -14 -54 -4 -35 19 -51 55 -37 85 18
38 15 45 -22 60 -40 17 -53 53 -34 93 7 14 24 29 38 32 26 6 28 17 14 72 -9
37 36 83 72 74 13 -3 35 -9 48 -12 20 -5 24 -1 29 25 10 49 82 64 115 23z
m-3162 -444 c65 -35 94 -148 94 -364 0 -153 -15 -215 -60 -259 -30 -29 -35
-30 -146 -34 l-114 -3 0 41 0 41 80 0 c64 0 80 3 80 15 0 12 -16 15 -80 15
l-80 0 0 65 0 65 80 0 c64 0 80 3 80 15 0 12 -16 15 -80 15 l-81 0 3 63 3 62
78 3 c55 2 77 7 77 16 0 21 -211 24 -1004 17 -560 -5 -720 -9 -723 -18 -4 -10
125 -13 609 -15 l613 -3 3 -62 3 -63 -612 -2 c-479 -2 -613 -6 -617 -15 -3
-10 124 -13 612 -13 l616 0 0 -65 0 -65 -615 0 c-540 0 -615 -2 -615 -15 0
-13 75 -15 615 -15 l615 0 0 -46 0 -46 -687 7 c-379 4 -693 8 -700 10 -9 3 -7
16 7 48 39 88 52 174 47 307 -4 118 -19 191 -62 292 -7 17 13 18 291 21 165 2
601 3 969 2 607 -1 673 -2 701 -17z m-258 -490 c1 -137 0 -248 -3 -248 -3 0
-29 16 -58 35 -28 19 -60 35 -71 35 -10 0 -48 -16 -83 -35 l-63 -36 0 244 c0
134 3 247 7 251 4 3 66 5 137 4 l131 -3 3 -247z"/>
<path d="M6541 8342 c-7 -26 -15 -55 -18 -64 -5 -15 1 -18 36 -18 22 0 41 1
41 3 0 12 -33 113 -39 119 -4 5 -13 -13 -20 -40z"/>
<path d="M4408 6443 c103 -118 362 -368 362 -350 0 10 -72 99 -160 197 -120
133 -168 180 -190 185 -16 4 -32 11 -35 16 -4 5 -11 9 -17 9 -5 0 13 -26 40
-57z"/>
<path d="M4603 6480 c38 -54 262 -329 265 -325 9 9 -234 328 -256 336 -21 8
-22 7 -9 -11z"/>
<path d="M4530 6425 c19 -19 36 -35 39 -35 3 0 -10 16 -29 35 -19 19 -36 35
-39 35 -3 0 10 -16 29 -35z"/>
<path d="M4621 6378 c119 -133 154 -166 83 -78 -82 103 -125 150 -137 150 -5
0 20 -32 54 -72z"/>
<path d="M4610 6335 c19 -19 36 -35 39 -35 3 0 -10 16 -29 35 -19 19 -36 35
-39 35 -3 0 10 -16 29 -35z"/>
<path d="M4695 6240 c21 -22 41 -40 44 -40 3 0 -13 18 -34 40 -21 22 -41 40
-44 40 -3 0 13 -18 34 -40z"/>
<path d="M4941 5338 c-1 -16 4 -28 9 -28 12 0 12 8 0 35 -8 18 -9 17 -9 -7z"/>
<path d="M5340 7435 l0 -85 28 0 c67 0 132 14 152 32 23 22 27 75 7 102 -14
19 -77 35 -144 36 l-43 0 0 -85z"/>
<path d="M3012 6468 l3 -73 73 -3 72 -3 0 76 0 75 -75 0 -76 0 3 -72z"/>
<path d="M2910 5725 c0 -20 5 -25 25 -25 20 0 25 5 25 25 0 20 -5 25 -25 25
-20 0 -25 -5 -25 -25z"/>
<path d="M2120 5575 l0 -75 75 0 75 0 0 75 0 75 -75 0 -75 0 0 -75z"/>
<path d="M3110 5525 c0 -20 5 -25 25 -25 20 0 25 5 25 25 0 20 -5 25 -25 25
-20 0 -25 -5 -25 -25z"/>
<path d="M2020 4645 c0 -13 84 -15 730 -13 476 2 731 6 733 13 1 7 -248 11
-730 13 -649 2 -733 0 -733 -13z"/>
<path d="M2020 4490 c0 -7 252 -10 735 -10 483 0 735 3 735 10 0 7 -252 10
-735 10 -483 0 -735 -3 -735 -10z"/>
<path d="M2385 3940 c-3 -6 0 -12 7 -15 26 -10 1673 0 1671 10 -4 14 -1669 19
-1678 5z"/>
<path d="M2387 3813 c-4 -3 -7 -10 -7 -15 0 -4 381 -8 846 -8 672 0 845 3 842
13 -4 9 -182 13 -840 15 -459 1 -838 -1 -841 -5z"/>
<path d="M2383 3668 c6 -19 1678 -19 1685 0 3 9 -170 12 -843 12 -673 0 -846
-3 -842 -12z"/>
<path d="M7105 3597 c-5 -27 -13 -35 -47 -45 -36 -11 -43 -11 -59 4 -15 13
-22 15 -31 6 -9 -9 -7 -16 5 -30 16 -17 16 -21 1 -60 -13 -31 -23 -42 -45 -47
-36 -8 -39 -35 -4 -35 19 0 29 -10 45 -40 19 -38 20 -41 4 -66 -23 -34 -6 -52
26 -26 20 16 27 17 59 6 27 -9 37 -19 44 -43 10 -41 37 -41 37 -1 0 25 6 33
35 47 34 16 36 16 65 -6 46 -33 67 -13 30 27 -16 17 -19 30 -14 57 6 31 10 36
45 41 46 8 52 31 12 40 -49 10 -51 12 -58 44 -6 25 -2 37 16 56 17 19 20 27
11 36 -9 9 -19 7 -41 -10 l-30 -22 -36 21 c-27 16 -35 27 -35 50 0 41 -27 38
-35 -4z m48 -109 c34 -18 46 -39 47 -81 0 -75 -83 -114 -143 -67 -83 65 3 198
96 148z"/>
<path d="M7082 3438 c-27 -27 -6 -68 35 -68 29 0 48 33 33 60 -12 22 -49 27
-68 8z"/>
<path d="M2220 3125 c0 -13 103 -15 865 -15 762 0 865 2 865 15 0 13 -103 15
-865 15 -762 0 -865 -2 -865 -15z"/>
<path d="M5222 8468 c2 -7 -3 -12 -9 -10 -7 1 -12 -4 -10 -10 1 -7 -4 -12 -10
-10 -7 1 -12 -4 -10 -10 1 -7 -4 -12 -10 -10 -7 1 -12 -4 -10 -10 1 -7 -4 -12
-12 -10 -11 2 -12 0 -4 -10 6 -7 12 -16 12 -21 1 -17 34 -77 43 -77 5 0 7 -3
5 -8 -3 -4 3 -23 14 -42 l19 -35 -1 133 c-1 72 -5 135 -10 138 -5 3 -8 0 -7
-8z m5 -32 c0 -8 -5 -14 -11 -13 -6 1 -10 -4 -8 -10 1 -7 -4 -12 -10 -10 -7 1
-12 -3 -11 -9 1 -6 -5 -11 -13 -11 -9 0 -3 12 18 34 37 38 35 37 35 19z"/>
<path d="M4242 7489 c2 -8 -3 -13 -9 -11 -7 1 -12 -4 -10 -10 1 -7 -4 -12 -10
-10 -7 1 -12 -4 -10 -10 1 -7 -4 -12 -10 -10 -7 1 -12 -4 -10 -10 1 -7 -4 -12
-10 -10 -7 1 -12 -4 -10 -10 1 -7 -4 -12 -10 -10 -7 1 -12 -4 -10 -10 1 -7 -4
-12 -10 -10 -7 1 -12 -4 -10 -10 1 -7 -4 -12 -10 -10 -7 1 -12 -4 -10 -10 1
-7 -4 -12 -11 -10 -8 1 -11 -2 -8 -7 4 -5 2 -12 -3 -15 -11 -7 -9 -25 3 -45 6
-10 5 -12 -2 -7 -9 5 -12 -15 -12 -73 l0 -81 65 0 c80 0 124 17 158 62 37 48
65 188 38 188 -6 0 -8 8 -6 18 2 10 -3 32 -12 48 -16 32 -75 85 -71 63z m24
-34 c1 -8 -3 -13 -9 -12 -7 1 -11 -4 -9 -10 1 -7 -4 -12 -10 -10 -7 1 -12 -4
-10 -10 1 -7 -4 -12 -10 -10 -7 1 -12 -4 -10 -10 1 -7 -4 -12 -10 -10 -7 1
-12 -4 -10 -10 1 -7 -4 -12 -10 -10 -7 1 -12 -4 -10 -10 1 -7 -4 -12 -10 -10
-7 1 -12 -4 -10 -10 1 -7 -4 -12 -10 -10 -7 1 -12 -4 -10 -10 1 -7 -4 -12 -10
-10 -7 1 -12 -3 -11 -9 1 -6 -4 -11 -11 -11 -8 0 -13 7 -12 14 3 17 168 184
175 177 3 -2 6 -11 7 -19z"/>
<path d="M4170 7383 l-85 -88 88 85 c48 46 87 86 87 87 0 8 -11 -3 -90 -84z"/>
<path d="M2022 6468 l3 -173 170 0 170 0 3 173 2 172 -175 0 -175 0 2 -172z
m298 -3 l0 -126 -122 3 -123 3 -3 123 -3 122 126 0 125 0 0 -125z"/>
<path d="M2120 6465 l0 -75 75 0 75 0 0 75 0 75 -75 0 -75 0 0 -75z"/>
<path d="M2022 6218 c2 -15 11 -24 26 -26 32 -5 30 -42 -3 -42 -20 0 -25 -5
-25 -25 0 -20 5 -25 25 -25 20 0 25 5 25 25 0 20 5 25 25 25 23 0 25 -3 25
-50 l0 -50 -50 0 -50 0 0 -125 0 -125 25 0 c24 0 25 2 25 75 0 73 1 75 25 75
23 0 25 3 25 50 0 47 2 50 25 50 20 0 25 -5 25 -25 0 -23 3 -25 50 -25 47 0
50 -2 50 -25 0 -23 -3 -25 -50 -25 l-50 0 0 -50 c0 -47 -2 -50 -25 -50 -20 0
-25 -5 -25 -25 0 -24 2 -25 75 -25 73 0 75 1 75 25 0 20 -5 25 -25 25 -20 0
-25 5 -25 25 0 24 2 25 75 25 73 0 75 1 75 25 0 20 -5 25 -25 25 -20 0 -25 5
-25 25 0 20 5 25 25 25 20 0 25 5 25 25 0 20 -5 25 -25 25 -20 0 -25 5 -25 25
0 20 5 25 25 25 20 0 25 5 25 25 0 20 -5 25 -25 25 -33 0 -35 37 -2 42 14 2
23 11 25 26 3 22 2 22 -122 22 l-126 0 0 -26 c0 -21 -4 -25 -22 -22 -15 2 -24
11 -26 26 -3 16 -10 22 -28 22 -21 0 -25 -4 -22 -22z m298 -93 c0 -20 -5 -25
-25 -25 -20 0 -25 -5 -25 -25 0 -20 -5 -25 -25 -25 -20 0 -25 5 -25 25 0 20 5
25 25 25 20 0 25 5 25 25 0 20 5 25 25 25 20 0 25 -5 25 -25z"/>
<path d="M2520 6075 c0 -73 1 -75 25 -75 24 0 25 2 25 75 0 73 -1 75 -25 75
-24 0 -25 -2 -25 -75z"/>
<path d="M2420 6075 c0 -20 5 -25 25 -25 20 0 25 5 25 25 0 20 -5 25 -25 25
-20 0 -25 -5 -25 -25z"/>
<path d="M2320 5825 c0 -20 5 -25 25 -25 20 0 25 5 25 25 0 20 -5 25 -25 25
-20 0 -25 -5 -25 -25z"/>
<path d="M2164 5378 c-3 -5 -10 -6 -15 -2 -5 3 -8 0 -7 -8 2 -7 -3 -12 -9 -10
-7 1 -12 -4 -10 -10 1 -7 -4 -12 -10 -10 -7 1 -12 -4 -10 -10 1 -7 -4 -12 -10
-10 -7 1 -12 -4 -10 -10 1 -7 -4 -12 -10 -10 -7 1 -12 -4 -10 -10 1 -7 -4 -12
-11 -10 -6 1 -11 -4 -10 -10 2 -7 -3 -12 -9 -10 -7 1 -12 -4 -10 -10 1 -7 -4
-12 -10 -10 -7 1 -12 -4 -10 -10 1 -7 -3 -12 -9 -11 -6 1 -11 -8 -10 -20 1
-13 -4 -21 -11 -19 -7 1 -12 -4 -10 -10 1 -7 -4 -12 -10 -11 -7 2 -12 -3 -10
-10 1 -6 -4 -11 -10 -10 -7 2 -12 -3 -10 -10 1 -6 -4 -11 -10 -10 -7 2 -12 -3
-10 -10 1 -6 -4 -11 -11 -9 -6 1 -11 -4 -10 -10 2 -7 -3 -12 -10 -10 -6 1 -11
-4 -10 -10 2 -7 -3 -12 -10 -10 -6 1 -11 -4 -10 -10 2 -7 -3 -12 -10 -10 -6 1
-11 -4 -10 -10 2 -7 -3 -12 -10 -10 -6 1 -11 -4 -10 -10 2 -7 -3 -12 -10 -10
-6 1 -11 -4 -10 -10 2 -7 -3 -12 -10 -10 -6 1 -11 -4 -10 -10 2 -7 -2 -12 -8
-11 -6 1 -11 -5 -11 -13 0 -9 103 87 229 213 125 125 228 228 228 229 0 5 -32
-1 -36 -8z m16 -1 c0 -1 -44 -45 -97 -97 l-98 -95 95 98 c88 90 100 102 100
94z"/>
</g>
</svg>
